<svg viewBox="0 0 1440 420" xmlns="http://www.w3.org/2000/svg">
  <defs>
    <linearGradient id="bg" x1="0" y1="0" x2="1" y2="1">
      <stop offset="0" stop-color="#e8f1ff"/>
      <stop offset="1" stop-color="#f6fbff"/>
    </linearGradient>
    <linearGradient id="line" x1="0" y1="0" x2="1" y2="0">
      <stop offset="0" stop-color="#6aa6ff"/>
      <stop offset="1" stop-color="#2f74ff"/>
    </linearGradient>
    <radialGradient id="glow" cx="50%" cy="50%" r="60%">
      <stop offset="0" stop-color="#bcd6ff" stop-opacity="0.8"/>
      <stop offset="1" stop-color="#bcd6ff" stop-opacity="0"/>
    </radialGradient>
  </defs>

  <rect width="1440" height="420" fill="url(#bg)"/>
  <rect width="1440" height="420" fill="url(#glow)"/>

  <g opacity=".9" stroke="url(#line)" stroke-width="1.5" fill="none">
    <path d="M80,120 H480 M220,60 V360 M360,40 V380 M520,80 V340"/>
    <path d="M680,110 H1200 M760,50 V370 M1020,80 V340 M1160,60 V360"/>
    <path d="M120,300 H560 M240,260 H520 M880,260 H1320 M980,300 H1380"/>
    <path d="M760,180 H1320"/>
  </g>

  <g fill="#2f74ff" opacity=".9">
    <circle cx="220" cy="120" r="4"/><circle cx="360" cy="120" r="4"/>
    <circle cx="520" cy="120" r="4"/><circle cx="760" cy="110" r="4"/>
    <circle cx="1020" cy="110" r="4"/><circle cx="1160" cy="180" r="4"/>
    <circle cx="980" cy="300" r="4"/><circle cx="1320" cy="260" r="4"/>
  </g>

  <g opacity=".25">
    <circle cx="260" cy="220" r="120" fill="#a5d8ff"/>
    <circle cx="960" cy="160" r="140" fill="#c7d2fe"/>
    <circle cx="1220" cy="270" r="110" fill="#b3e0ff"/>
  </g>
</svg>
